PathFileType	4	(x/y/z)	S08_PSF_T13
DataRate	CameraRate	NumFrames	NumMarkers	Units	OrigDataRate	OrigDataStartFrame	OrigNumFrames
240	240	4	51	mm	240	264	422
Frame#	Time	Sternum			R.Acromium			L.Acromium			Top.Head			R.ASIS			L.ASIS			R.PSIS			L.PSIS			R.Great.Tro			L.Great.Tro			R.Iliac.Crest			L.Iliac.Crest			V.Sacral			R.Thigh.Upper.Post			R.Thigh.Lower.Ant			R.Thigh.Lower.Post			R.Thigh.Upper.Ant			R.Knee.Lat			R.Knee.Med			R.Shank.Upper.Post			R.Shank.Lower.Ant			R.Shank.Lower.Post			R.Shank.Upper.Ant			R.Ankle.Lat			R.Ankle.Med			R.Heel.Upper			R.Heel.Med			R.Heel.Lat			R.Toe.Lat			R.Toe.Med			R.Toe.Tip			L.Thigh.Upper.Post			L.Thigh.Lower.Ant			L.Thigh.Lower.Post			L.Thigh.Upper.Ant			L.Knee.Lat			L.Knee.Med			L.Shank.Upper.Post			L.Shank.Lower.Ant			L.Shank.Lower.Post			L.Shank.Upper.Ant			L.Ankle.Lat			L.Ankle.Med			L.Heel.Upper			L.Heel.Med			L.Heel.Lat			L.Toe.Lat			L.Toe.Med			L.Toe.Tip			Cervical.Spine			Back			
		X1	Y1	Z1	X2	Y2	Z2	X3	Y3	Z3	X4	Y4	Z4	X5	Y5	Z5	X6	Y6	Z6	X7	Y7	Z7	X8	Y8	Z8	X9	Y9	Z9	X10	Y10	Z10	X11	Y11	Z11	X12	Y12	Z12	X13	Y13	Z13	X14	Y14	Z14	X15	Y15	Z15	X16	Y16	Z16	X17	Y17	Z17	X18	Y18	Z18	X19	Y19	Z19	X20	Y20	Z20	X21	Y21	Z21	X22	Y22	Z22	X23	Y23	Z23	X24	Y24	Z24	X25	Y25	Z25	X26	Y26	Z26	X27	Y27	Z27	X28	Y28	Z28	X29	Y29	Z29	X30	Y30	Z30	X31	Y31	Z31	X32	Y32	Z32	X33	Y33	Z33	X34	Y34	Z34	X35	Y35	Z35	X36	Y36	Z36	X37	Y37	Z37	X38	Y38	Z38	X39	Y39	Z39	X40	Y40	Z40	X41	Y41	Z41	X42	Y42	Z42	X43	Y43	Z43	X44	Y44	Z44	X45	Y45	Z45	X46	Y46	Z46	X47	Y47	Z47	X48	Y48	Z48	X49	Y49	Z49	X50	Y50	Z50	X51	Y51	Z51	

264	1.0958	-74.778	1198.4	337.34	-178.13	1439.4	515.17	-202.78	1466.1	179.6	-184.21	1756.2	361.24	-109.67	985.87	454.27	-95.235	990.18	221.28	-304.32	1015.3	361.66	-295.83	1017.6	268.52	-201.73	887.87	516.89	-174.18	882.91	146.73	-204.99	1059.4	489.8	-185.54	1072.3	181.79	-317.39	976.31	313.9	-280.44	707.14	497.49	-234.44	589.95	465.73	-299.26	619.85	475.76	-207.19	678.99	489.66	-301.51	505.3	453.59	-315.38	517.32	325.6	-437.55	361.65	452.64	-404.66	280.51	430.13	-468.07	291.61	441.45	-373.38	350.55	442.81	-532.73	134.37	396.22	-499.8	142.28	320.91	-591.53	108.97	347.03	-582.8	80.037	320.1	-591.1	83.281	381.3	NaN	NaN	NaN	-401.89	43.164	314.46	-337.41	44.785	363.55	-122.58	676.41	161.62	-10.943	621.9	185.95	-76.412	599.73	180.95	-52.7	697.13	160.54	-21.018	513.11	200.07	-19.607	513.38	326.08	-8.851	324.09	200.74	87.301	269.55	219.6	16.211	255.88	216.15	55.306	337.53	205.01	108.92	103.63	229.53	130.13	121.79	314.98	69.26	62.544	280.65	96.674	37.729	313.98	87.678	38.393	250.43	253.88	89.641	213.96	270.06	108.56	326.17	320.02	147.76	275.42	-255.04	1499.3	345.65	-309.65	1216.7	352.63
265	1.1	-68.731	1198.1	336.88	-172.28	1439.1	514.69	-197.06	1465.7	179.07	-178.75	1755.9	360.82	-103.52	985.46	453.94	-89.159	989.88	220.92	-298.18	1015.1	361.42	-289.73	1017.4	268.27	-195.79	887.44	516.53	-168.25	882.69	146.5	-198.79	1059.1	489.56	-179.15	1072.1	181.46	-311.31	976.14	313.63	-274.55	706.74	497	-228.44	589.5	465.5	-293.29	619.41	475.29	-201.28	678.59	489.36	-295.59	504.95	453.44	-309.15	516.82	325.44	-433.02	362.66	452.58	-401.12	281.11	430.16	-464.34	292.97	441.49	-369.02	350.85	442.82	-530.9	136.41	396.59	-497.55	143.84	321.31	-590.01	111.89	347.25	-581.56	82.979	320.27	-589.87	86.077	381.47	NaN	NaN	NaN	-401.59	43.251	314.54	-337.21	44.543	363.56	-116.63	676.34	161.77	-4.9646	621.89	186.11	-70.431	599.7	181.16	-46.761	697.08	160.64	-15.205	512.95	200.31	-13.664	513.39	326.23	-4.4003	323.83	200.97	91.24	268.54	220.04	20.086	255.44	216.37	59.83	336.76	205.42	111.32	102.74	229.81	132.73	120.59	315.39	71.221	62.885	281.07	98.194	37.502	314.27	89.13	38.514	250.77	255.89	87.074	214.33	272.37	105.56	326.47	322.81	144.2	275.83	-249.29	1499	345.17	-303.66	1216.3	352.3
266	1.1042	-62.665	1198	336.39	-166.42	1438.8	514.2	-191.32	1465.4	178.52	-173.3	1755.7	360.4	-97.331	985.1	453.58	-83.069	989.64	220.55	-292.01	1015	361.21	-283.61	1017.3	268.04	-189.77	887.02	516.15	-162.31	882.55	146.26	-192.54	1058.7	489.33	-172.79	1071.9	181.13	-305.21	976.05	313.38	-268.54	706.33	496.49	-222.25	589.05	465.27	-287.15	618.94	474.81	-195.22	678.21	489.05	-289.46	504.58	453.3	-302.72	516.3	325.29	-428.3	363.71	452.53	-397.42	281.75	430.22	-460.43	294.39	441.54	-364.48	351.17	442.84	-528.92	138.54	396.98	-495.14	145.48	321.74	-588.3	114.98	347.48	-580.18	86.098	320.44	-588.52	89.046	381.65	NaN	NaN	NaN	-401.27	43.352	314.63	-337.02	44.314	363.56	-110.65	676.36	161.91	1.0358	621.96	186.26	-64.427	599.75	181.35	-40.792	697.12	160.74	-9.3694	512.87	200.54	-7.7415	513.45	326.37	0.0045051	323.66	201.15	95.099	267.57	220.45	23.88	255.07	216.55	64.311	336.04	205.81	113.51	101.88	230.06	135.13	119.4	315.77	72.961	63.287	281.45	99.454	37.312	314.53	90.331	38.685	251.07	257.67	84.418	214.66	274.46	102.45	326.75	325.42	140.49	276.21	-243.53	1498.7	344.68	-297.65	1216	351.97
267	1.1083	-56.582	1197.9	335.9	-160.56	1438.6	513.7	-185.57	1465.2	177.96	-167.84	1755.5	359.97	-91.095	984.8	453.2	-76.967	989.49	220.15	-285.8	1014.9	361.02	-277.47	1017.3	267.83	-183.68	886.63	515.75	-156.36	882.49	146	-186.24	1058.5	489.11	-166.49	1071.8	180.81	-299.09	976.03	313.16	-262.38	705.91	495.97	-215.88	588.61	465.03	-280.84	618.46	474.33	-189.02	677.85	488.72	-283.11	504.21	453.17	-296.09	515.76	325.16	-423.38	364.8	452.48	-393.54	282.43	430.29	-456.33	295.87	441.59	-359.76	351.52	442.88	-526.77	140.76	397.39	-492.56	147.2	322.2	-586.38	118.23	347.73	-578.65	89.4	320.62	-587	92.199	381.83	NaN	NaN	NaN	-400.91	43.472	314.72	-336.82	44.095	363.55	-104.66	676.45	162.03	7.0449	622.1	186.4	-58.414	599.87	181.52	-34.802	697.23	160.86	-3.5257	512.85	200.74	-1.8641	513.55	326.49	4.3705	323.57	201.28	98.893	266.65	220.84	27.607	254.77	216.69	68.755	335.38	206.17	115.54	101.06	230.26	137.37	118.23	316.09	74.521	63.746	281.79	100.5	37.166	314.73	91.327	38.903	251.31	259.26	81.705	214.97	276.34	99.272	327	327.86	136.66	276.57	-237.76	1498.5	344.17	-291.62	1215.7	351.64
